{"title":"The Black Bastard 8 DVDRip","uid":10833223,"size":1468462879,"categoryP":"porn","categoryS":"movie_clips","magnet":"?xt=urn:btih:88f71b0e2d4577aae1340017049a1f6cb8ceece1&amp;dn=The+Black+Bastard+8+DVDRip&amp;tr=udp%3A%2F%2Ftracker.openbittorrent.com%3A80&amp;tr=udp%3A%2F%2Fopen.demonii.com%3A1337&amp;tr=udp%3A%2F%2Ftracker.coppersurfer.tk%3A6969&amp;tr=udp%3A%2F%2Fexodus.desync.com%3A6969","seeders":1,"leechers":0,"uploader":"ThousandPeers","files":-1,"time":1408647693,"description":"Format                                   : AVI\nFormat/Info                              : Audio Video Interleave\nFile size                                : 700 MiB\nDuration                                 : 1h 10mn\nOverall bit rate mode                    : Variable\nOverall bit rate                         : 1 383 Kbps\n\nVideo\nID                                       : 0\nFormat                                   : MPEG-4 Visual\nFormat profile                           : Advanced Simple@L5\nFormat settings, BVOP                    : 1\nFormat settings, QPel                    : No\nFormat settings, GMC                     : No warppoints\nFormat settings, Matrix                  : Custom\nCodec ID                                 : XVID\nCodec ID/Hint                            : XviD\nDuration                                 : 1h 10mn\nBit rate                                 : 1 232 Kbps\nWidth                                    : 512 pixels\nHeight                                   : 384 pixels\nDisplay aspect ratio                     : 4:3\nFrame rate                               : 29.970 fps\nColor space                              : YUV\nChroma subsampling                       : 4:2:0\nBit depth                                : 8 bits\nScan type                                : Progressive\nCompression mode                         : Lossy\nBits/(Pixel*Frame)                       : 0.209\nStream size                              : 623 MiB (89%)\nWriting library                          : XviD 1.0.3 (UTC 2004-12-20)\n\nAudio\nID                                       : 1\nFormat                                   : MPEG Audio\nFormat version                           : Version 1\nFormat profile                           : Layer 3\nMode                                     : Joint stereo\nMode extension                           : MS Stereo\nCodec ID                                 : 55\nCodec ID/Hint                            : MP3\nDuration                                 : 1h 10mn\nBit rate mode                            : Variable\nBit rate                                 : 137 Kbps\nNominal bit rate                         : 128 Kbps\nChannel(s)                               : 2 channels\nSampling rate                            : 48.0 KHz\nCompression mode                         : Lossy\nStream size                              : 69.5 MiB (10%)\nAlignment                                : Aligned on interleaves\nInterleave, duration                     : 24 ms (0.72 video frame)\nInterleave, preload duration             : 483 ms\nWriting library                          : LAME3.96r\nEncoding settings                        : -m j -V 4 -q 2 -lowpass 17.5 --abr 128\nLanguage                                 : English / English","torrent":{"xt":"urn:btih:88f71b0e2d4577aae1340017049a1f6cb8ceece1","amp;dn":"The+Black+Bastard+8+DVDRip","amp;tr":["udp%3A%2F%2Ftracker.openbittorrent.com%3A80","udp%3A%2F%2Fopen.demonii.com%3A1337","udp%3A%2F%2Ftracker.coppersurfer.tk%3A6969","udp%3A%2F%2Fexodus.desync.com%3A6969"],"infoHash":"88f71b0e2d4577aae1340017049a1f6cb8ceece1","infoHashBuffer":{"type":"Buffer","data":[136,247,27,14,45,69,119,170,225,52,0,23,4,154,31,108,184,206,236,225]},"announce":[],"urlList":[]}}